<mxfile host="app.diagrams.net" modified="2021-06-01T14:13:43.948Z" agent="5.0 (Windows)" etag="PKqmrNCM18mkbJFHEIZa" version="14.7.3" type="github">
  <diagram id="IGLxWHjV8x6iXl9puWFN" name="Page-1">
    <mxGraphModel dx="1822" dy="791" grid="1" gridSize="10" guides="1" tooltips="1" connect="1" arrows="1" fold="1" page="0" pageScale="1" pageWidth="827" pageHeight="1169" math="0" shadow="0">
      <root>
        <mxCell id="0" />
        <mxCell id="1" parent="0" />
        <mxCell id="Fxgzw8GBScZq0T7jmYtF-1" value="Zookeeper : BSONDocument" style="shape=table;startSize=30;container=1;collapsible=1;childLayout=tableLayout;fixedRows=1;rowLines=0;fontStyle=1;align=center;resizeLast=1;fontFamily=Courier New;fontSize=14;" parent="1" vertex="1">
          <mxGeometry x="440" y="240" width="320" height="200" as="geometry" />
        </mxCell>
        <mxCell id="Fxgzw8GBScZq0T7jmYtF-2" value="" style="shape=partialRectangle;collapsible=0;dropTarget=0;pointerEvents=0;fillColor=none;top=0;left=0;bottom=1;right=0;points=[[0,0.5],[1,0.5]];portConstraint=eastwest;fontFamily=Courier New;fontSize=14;" parent="Fxgzw8GBScZq0T7jmYtF-1" vertex="1">
          <mxGeometry y="30" width="320" height="30" as="geometry" />
        </mxCell>
        <mxCell id="Fxgzw8GBScZq0T7jmYtF-3" value="PK" style="shape=partialRectangle;connectable=0;fillColor=none;top=0;left=0;bottom=0;right=0;fontStyle=1;overflow=hidden;fontFamily=Courier New;fontSize=14;" parent="Fxgzw8GBScZq0T7jmYtF-2" vertex="1">
          <mxGeometry width="40" height="30" as="geometry" />
        </mxCell>
        <mxCell id="Fxgzw8GBScZq0T7jmYtF-4" value="id : Integer" style="shape=partialRectangle;connectable=0;fillColor=none;top=0;left=0;bottom=0;right=0;align=left;spacingLeft=6;fontStyle=5;overflow=hidden;fontFamily=Courier New;fontSize=14;" parent="Fxgzw8GBScZq0T7jmYtF-2" vertex="1">
          <mxGeometry x="40" width="280" height="30" as="geometry" />
        </mxCell>
        <mxCell id="Fxgzw8GBScZq0T7jmYtF-5" value="" style="shape=partialRectangle;collapsible=0;dropTarget=0;pointerEvents=0;fillColor=none;top=0;left=0;bottom=0;right=0;points=[[0,0.5],[1,0.5]];portConstraint=eastwest;fontFamily=Courier New;fontSize=14;" parent="Fxgzw8GBScZq0T7jmYtF-1" vertex="1">
          <mxGeometry y="60" width="320" height="30" as="geometry" />
        </mxCell>
        <mxCell id="Fxgzw8GBScZq0T7jmYtF-6" value="R" style="shape=partialRectangle;connectable=0;fillColor=none;top=0;left=0;bottom=0;right=0;editable=1;overflow=hidden;fontFamily=Courier New;fontSize=14;" parent="Fxgzw8GBScZq0T7jmYtF-5" vertex="1">
          <mxGeometry width="40" height="30" as="geometry" />
        </mxCell>
        <mxCell id="Fxgzw8GBScZq0T7jmYtF-7" value="zookeeper_name : String" style="shape=partialRectangle;connectable=0;fillColor=none;top=0;left=0;bottom=0;right=0;align=left;spacingLeft=6;overflow=hidden;fontFamily=Courier New;fontSize=14;" parent="Fxgzw8GBScZq0T7jmYtF-5" vertex="1">
          <mxGeometry x="40" width="280" height="30" as="geometry" />
        </mxCell>
        <mxCell id="Fxgzw8GBScZq0T7jmYtF-8" value="" style="shape=partialRectangle;collapsible=0;dropTarget=0;pointerEvents=0;fillColor=none;top=0;left=0;bottom=0;right=0;points=[[0,0.5],[1,0.5]];portConstraint=eastwest;fontFamily=Courier New;fontSize=14;" parent="Fxgzw8GBScZq0T7jmYtF-1" vertex="1">
          <mxGeometry y="90" width="320" height="30" as="geometry" />
        </mxCell>
        <mxCell id="Fxgzw8GBScZq0T7jmYtF-9" value="R" style="shape=partialRectangle;connectable=0;fillColor=none;top=0;left=0;bottom=0;right=0;editable=1;overflow=hidden;fontFamily=Courier New;fontSize=14;" parent="Fxgzw8GBScZq0T7jmYtF-8" vertex="1">
          <mxGeometry width="40" height="30" as="geometry" />
        </mxCell>
        <mxCell id="Fxgzw8GBScZq0T7jmYtF-10" value="zookeeper_surname : String" style="shape=partialRectangle;connectable=0;fillColor=none;top=0;left=0;bottom=0;right=0;align=left;spacingLeft=6;overflow=hidden;fontFamily=Courier New;fontSize=14;" parent="Fxgzw8GBScZq0T7jmYtF-8" vertex="1">
          <mxGeometry x="40" width="280" height="30" as="geometry" />
        </mxCell>
        <mxCell id="Fxgzw8GBScZq0T7jmYtF-11" value="" style="shape=partialRectangle;collapsible=0;dropTarget=0;pointerEvents=0;fillColor=none;top=0;left=0;bottom=0;right=0;points=[[0,0.5],[1,0.5]];portConstraint=eastwest;fontFamily=Courier New;fontSize=14;" parent="Fxgzw8GBScZq0T7jmYtF-1" vertex="1">
          <mxGeometry y="120" width="320" height="30" as="geometry" />
        </mxCell>
        <mxCell id="Fxgzw8GBScZq0T7jmYtF-12" value="R" style="shape=partialRectangle;connectable=0;fillColor=none;top=0;left=0;bottom=0;right=0;editable=1;overflow=hidden;fontFamily=Courier New;fontSize=14;" parent="Fxgzw8GBScZq0T7jmYtF-11" vertex="1">
          <mxGeometry width="40" height="30" as="geometry" />
        </mxCell>
        <mxCell id="Fxgzw8GBScZq0T7jmYtF-13" value="zookeeper_phone_number : String" style="shape=partialRectangle;connectable=0;fillColor=none;top=0;left=0;bottom=0;right=0;align=left;spacingLeft=6;overflow=hidden;fontFamily=Courier New;fontSize=14;" parent="Fxgzw8GBScZq0T7jmYtF-11" vertex="1">
          <mxGeometry x="40" width="280" height="30" as="geometry" />
        </mxCell>
        <mxCell id="Fxgzw8GBScZq0T7jmYtF-14" value="Category : BSONDocument" style="shape=table;startSize=30;container=1;collapsible=1;childLayout=tableLayout;fixedRows=1;rowLines=0;fontStyle=1;align=center;resizeLast=1;fontFamily=Courier New;fontSize=14;" parent="1" vertex="1">
          <mxGeometry x="440" y="80" width="320" height="120" as="geometry" />
        </mxCell>
        <mxCell id="Fxgzw8GBScZq0T7jmYtF-15" value="" style="shape=partialRectangle;collapsible=0;dropTarget=0;pointerEvents=0;fillColor=none;top=0;left=0;bottom=1;right=0;points=[[0,0.5],[1,0.5]];portConstraint=eastwest;fontFamily=Courier New;fontSize=14;" parent="Fxgzw8GBScZq0T7jmYtF-14" vertex="1">
          <mxGeometry y="30" width="320" height="30" as="geometry" />
        </mxCell>
        <mxCell id="Fxgzw8GBScZq0T7jmYtF-16" value="PK" style="shape=partialRectangle;connectable=0;fillColor=none;top=0;left=0;bottom=0;right=0;fontStyle=1;overflow=hidden;fontFamily=Courier New;fontSize=14;" parent="Fxgzw8GBScZq0T7jmYtF-15" vertex="1">
          <mxGeometry width="40" height="30" as="geometry" />
        </mxCell>
        <mxCell id="Fxgzw8GBScZq0T7jmYtF-17" value="id : Integer" style="shape=partialRectangle;connectable=0;fillColor=none;top=0;left=0;bottom=0;right=0;align=left;spacingLeft=6;fontStyle=5;overflow=hidden;fontFamily=Courier New;fontSize=14;" parent="Fxgzw8GBScZq0T7jmYtF-15" vertex="1">
          <mxGeometry x="40" width="280" height="30" as="geometry" />
        </mxCell>
        <mxCell id="Fxgzw8GBScZq0T7jmYtF-18" value="" style="shape=partialRectangle;collapsible=0;dropTarget=0;pointerEvents=0;fillColor=none;top=0;left=0;bottom=0;right=0;points=[[0,0.5],[1,0.5]];portConstraint=eastwest;fontFamily=Courier New;fontSize=14;" parent="Fxgzw8GBScZq0T7jmYtF-14" vertex="1">
          <mxGeometry y="60" width="320" height="30" as="geometry" />
        </mxCell>
        <mxCell id="Fxgzw8GBScZq0T7jmYtF-19" value="R" style="shape=partialRectangle;connectable=0;fillColor=none;top=0;left=0;bottom=0;right=0;editable=1;overflow=hidden;fontFamily=Courier New;fontSize=14;" parent="Fxgzw8GBScZq0T7jmYtF-18" vertex="1">
          <mxGeometry width="40" height="30" as="geometry" />
        </mxCell>
        <mxCell id="Fxgzw8GBScZq0T7jmYtF-20" value="category_name : String" style="shape=partialRectangle;connectable=0;fillColor=none;top=0;left=0;bottom=0;right=0;align=left;spacingLeft=6;overflow=hidden;fontFamily=Courier New;fontSize=14;" parent="Fxgzw8GBScZq0T7jmYtF-18" vertex="1">
          <mxGeometry x="40" width="280" height="30" as="geometry" />
        </mxCell>
        <mxCell id="Fxgzw8GBScZq0T7jmYtF-21" value="" style="group;fontFamily=Courier New;fontSize=14;" parent="1" vertex="1" connectable="0">
          <mxGeometry x="440" y="480" width="320" height="200" as="geometry" />
        </mxCell>
        <mxCell id="Fxgzw8GBScZq0T7jmYtF-22" value="Food : BSONDocument" style="shape=table;startSize=30;container=1;collapsible=1;childLayout=tableLayout;fixedRows=1;rowLines=0;fontStyle=1;align=center;resizeLast=1;fontFamily=Courier New;fontSize=14;" parent="Fxgzw8GBScZq0T7jmYtF-21" vertex="1">
          <mxGeometry width="320" height="200" as="geometry" />
        </mxCell>
        <mxCell id="Fxgzw8GBScZq0T7jmYtF-23" value="" style="shape=partialRectangle;collapsible=0;dropTarget=0;pointerEvents=0;fillColor=none;top=0;left=0;bottom=1;right=0;points=[[0,0.5],[1,0.5]];portConstraint=eastwest;fontFamily=Courier New;fontSize=14;" parent="Fxgzw8GBScZq0T7jmYtF-22" vertex="1">
          <mxGeometry y="30" width="320" height="30" as="geometry" />
        </mxCell>
        <mxCell id="Fxgzw8GBScZq0T7jmYtF-24" value="PK" style="shape=partialRectangle;connectable=0;fillColor=none;top=0;left=0;bottom=0;right=0;fontStyle=1;overflow=hidden;fontFamily=Courier New;fontSize=14;" parent="Fxgzw8GBScZq0T7jmYtF-23" vertex="1">
          <mxGeometry width="40" height="30" as="geometry" />
        </mxCell>
        <mxCell id="Fxgzw8GBScZq0T7jmYtF-25" value="id : Integer" style="shape=partialRectangle;connectable=0;fillColor=none;top=0;left=0;bottom=0;right=0;align=left;spacingLeft=6;fontStyle=5;overflow=hidden;fontFamily=Courier New;fontSize=14;" parent="Fxgzw8GBScZq0T7jmYtF-23" vertex="1">
          <mxGeometry x="40" width="280" height="30" as="geometry" />
        </mxCell>
        <mxCell id="Fxgzw8GBScZq0T7jmYtF-26" value="" style="shape=partialRectangle;collapsible=0;dropTarget=0;pointerEvents=0;fillColor=none;top=0;left=0;bottom=0;right=0;points=[[0,0.5],[1,0.5]];portConstraint=eastwest;fontFamily=Courier New;fontSize=14;" parent="Fxgzw8GBScZq0T7jmYtF-22" vertex="1">
          <mxGeometry y="60" width="320" height="30" as="geometry" />
        </mxCell>
        <mxCell id="Fxgzw8GBScZq0T7jmYtF-27" value="R" style="shape=partialRectangle;connectable=0;fillColor=none;top=0;left=0;bottom=0;right=0;editable=1;overflow=hidden;fontFamily=Courier New;fontSize=14;" parent="Fxgzw8GBScZq0T7jmYtF-26" vertex="1">
          <mxGeometry width="40" height="30" as="geometry" />
        </mxCell>
        <mxCell id="Fxgzw8GBScZq0T7jmYtF-28" value="food_name : String" style="shape=partialRectangle;connectable=0;fillColor=none;top=0;left=0;bottom=0;right=0;align=left;spacingLeft=6;overflow=hidden;fontFamily=Courier New;fontSize=14;" parent="Fxgzw8GBScZq0T7jmYtF-26" vertex="1">
          <mxGeometry x="40" width="280" height="30" as="geometry" />
        </mxCell>
        <mxCell id="Fxgzw8GBScZq0T7jmYtF-29" value="" style="shape=partialRectangle;collapsible=0;dropTarget=0;pointerEvents=0;fillColor=none;top=0;left=0;bottom=0;right=0;points=[[0,0.5],[1,0.5]];portConstraint=eastwest;fontFamily=Courier New;fontSize=14;" parent="Fxgzw8GBScZq0T7jmYtF-22" vertex="1">
          <mxGeometry y="90" width="320" height="30" as="geometry" />
        </mxCell>
        <mxCell id="Fxgzw8GBScZq0T7jmYtF-30" value="" style="shape=partialRectangle;connectable=0;fillColor=none;top=0;left=0;bottom=0;right=0;editable=1;overflow=hidden;fontFamily=Courier New;fontSize=14;" parent="Fxgzw8GBScZq0T7jmYtF-29" vertex="1">
          <mxGeometry width="40" height="30" as="geometry" />
        </mxCell>
        <mxCell id="Fxgzw8GBScZq0T7jmYtF-31" value="food_buy_price : Decimal" style="shape=partialRectangle;connectable=0;fillColor=none;top=0;left=0;bottom=0;right=0;align=left;spacingLeft=6;overflow=hidden;fontFamily=Courier New;fontSize=14;" parent="Fxgzw8GBScZq0T7jmYtF-29" vertex="1">
          <mxGeometry x="40" width="280" height="30" as="geometry" />
        </mxCell>
        <mxCell id="Fxgzw8GBScZq0T7jmYtF-32" value="" style="shape=partialRectangle;collapsible=0;dropTarget=0;pointerEvents=0;fillColor=none;top=0;left=0;bottom=0;right=0;points=[[0,0.5],[1,0.5]];portConstraint=eastwest;fontFamily=Courier New;fontSize=14;" parent="Fxgzw8GBScZq0T7jmYtF-22" vertex="1">
          <mxGeometry y="120" width="320" height="30" as="geometry" />
        </mxCell>
        <mxCell id="Fxgzw8GBScZq0T7jmYtF-33" value="" style="shape=partialRectangle;connectable=0;fillColor=none;top=0;left=0;bottom=0;right=0;editable=1;overflow=hidden;fontFamily=Courier New;fontSize=14;" parent="Fxgzw8GBScZq0T7jmYtF-32" vertex="1">
          <mxGeometry width="40" height="30" as="geometry" />
        </mxCell>
        <mxCell id="Fxgzw8GBScZq0T7jmYtF-34" value="food_storage_quantity : Integer" style="shape=partialRectangle;connectable=0;fillColor=none;top=0;left=0;bottom=0;right=0;align=left;spacingLeft=6;overflow=hidden;fontFamily=Courier New;fontSize=14;" parent="Fxgzw8GBScZq0T7jmYtF-32" vertex="1">
          <mxGeometry x="40" width="280" height="30" as="geometry" />
        </mxCell>
        <mxCell id="Fxgzw8GBScZq0T7jmYtF-35" value="R" style="shape=partialRectangle;connectable=0;fillColor=none;top=0;left=0;bottom=0;right=0;editable=1;overflow=hidden;fontFamily=Courier New;fontSize=14;" parent="Fxgzw8GBScZq0T7jmYtF-21" vertex="1">
          <mxGeometry y="117.5" width="40" height="37.5" as="geometry" />
        </mxCell>
        <mxCell id="Fxgzw8GBScZq0T7jmYtF-36" value="R" style="shape=partialRectangle;connectable=0;fillColor=none;top=0;left=0;bottom=0;right=0;editable=1;overflow=hidden;fontFamily=Courier New;fontSize=14;" parent="Fxgzw8GBScZq0T7jmYtF-21" vertex="1">
          <mxGeometry y="86" width="40" height="37.5" as="geometry" />
        </mxCell>
        <mxCell id="Fxgzw8GBScZq0T7jmYtF-37" value="" style="group;fontFamily=Courier New;fontSize=14;" parent="1" vertex="1" connectable="0">
          <mxGeometry y="80" width="320" height="240" as="geometry" />
        </mxCell>
        <mxCell id="Fxgzw8GBScZq0T7jmYtF-38" value="AnimalType : BSONDocument" style="shape=table;startSize=30;container=1;collapsible=1;childLayout=tableLayout;fixedRows=1;rowLines=0;fontStyle=1;align=center;resizeLast=1;fontFamily=Courier New;fontSize=14;" parent="Fxgzw8GBScZq0T7jmYtF-37" vertex="1">
          <mxGeometry width="320" height="150" as="geometry" />
        </mxCell>
        <mxCell id="Fxgzw8GBScZq0T7jmYtF-39" value="" style="shape=partialRectangle;collapsible=0;dropTarget=0;pointerEvents=0;fillColor=none;top=0;left=0;bottom=1;right=0;points=[[0,0.5],[1,0.5]];portConstraint=eastwest;fontFamily=Courier New;fontSize=14;" parent="Fxgzw8GBScZq0T7jmYtF-38" vertex="1">
          <mxGeometry y="30" width="320" height="30" as="geometry" />
        </mxCell>
        <mxCell id="Fxgzw8GBScZq0T7jmYtF-40" value="PK" style="shape=partialRectangle;connectable=0;fillColor=none;top=0;left=0;bottom=0;right=0;fontStyle=1;overflow=hidden;fontFamily=Courier New;fontSize=14;" parent="Fxgzw8GBScZq0T7jmYtF-39" vertex="1">
          <mxGeometry width="40" height="30" as="geometry" />
        </mxCell>
        <mxCell id="Fxgzw8GBScZq0T7jmYtF-41" value="id : Integer" style="shape=partialRectangle;connectable=0;fillColor=none;top=0;left=0;bottom=0;right=0;align=left;spacingLeft=6;fontStyle=5;overflow=hidden;fontFamily=Courier New;fontSize=14;" parent="Fxgzw8GBScZq0T7jmYtF-39" vertex="1">
          <mxGeometry x="40" width="280" height="30" as="geometry" />
        </mxCell>
        <mxCell id="Fxgzw8GBScZq0T7jmYtF-42" value="" style="shape=partialRectangle;collapsible=0;dropTarget=0;pointerEvents=0;fillColor=none;top=0;left=0;bottom=0;right=0;points=[[0,0.5],[1,0.5]];portConstraint=eastwest;fontFamily=Courier New;fontSize=14;" parent="Fxgzw8GBScZq0T7jmYtF-38" vertex="1">
          <mxGeometry y="60" width="320" height="30" as="geometry" />
        </mxCell>
        <mxCell id="Fxgzw8GBScZq0T7jmYtF-43" value="R" style="shape=partialRectangle;connectable=0;fillColor=none;top=0;left=0;bottom=0;right=0;editable=1;overflow=hidden;fontFamily=Courier New;fontSize=14;" parent="Fxgzw8GBScZq0T7jmYtF-42" vertex="1">
          <mxGeometry width="40" height="30" as="geometry" />
        </mxCell>
        <mxCell id="Fxgzw8GBScZq0T7jmYtF-44" value="type_name : String" style="shape=partialRectangle;connectable=0;fillColor=none;top=0;left=0;bottom=0;right=0;align=left;spacingLeft=6;overflow=hidden;fontFamily=Courier New;fontSize=14;" parent="Fxgzw8GBScZq0T7jmYtF-42" vertex="1">
          <mxGeometry x="40" width="280" height="30" as="geometry" />
        </mxCell>
        <mxCell id="Fxgzw8GBScZq0T7jmYtF-45" value="" style="shape=partialRectangle;collapsible=0;dropTarget=0;pointerEvents=0;fillColor=none;top=0;left=0;bottom=0;right=0;points=[[0,0.5],[1,0.5]];portConstraint=eastwest;fontFamily=Courier New;fontSize=14;" parent="Fxgzw8GBScZq0T7jmYtF-38" vertex="1">
          <mxGeometry y="90" width="320" height="30" as="geometry" />
        </mxCell>
        <mxCell id="Fxgzw8GBScZq0T7jmYtF-46" value="R/FK" style="shape=partialRectangle;connectable=0;fillColor=none;top=0;left=0;bottom=0;right=0;editable=1;overflow=hidden;fontFamily=Courier New;fontSize=14;" parent="Fxgzw8GBScZq0T7jmYtF-45" vertex="1">
          <mxGeometry width="40" height="30" as="geometry" />
        </mxCell>
        <mxCell id="Fxgzw8GBScZq0T7jmYtF-47" value="type_category_id : Integer" style="shape=partialRectangle;connectable=0;fillColor=none;top=0;left=0;bottom=0;right=0;align=left;spacingLeft=6;overflow=hidden;fontFamily=Courier New;fontSize=14;" parent="Fxgzw8GBScZq0T7jmYtF-45" vertex="1">
          <mxGeometry x="40" width="280" height="30" as="geometry" />
        </mxCell>
        <mxCell id="Fxgzw8GBScZq0T7jmYtF-48" value="" style="shape=partialRectangle;collapsible=0;dropTarget=0;pointerEvents=0;fillColor=none;top=0;left=0;bottom=0;right=0;points=[[0,0.5],[1,0.5]];portConstraint=eastwest;fontFamily=Courier New;fontSize=14;" parent="Fxgzw8GBScZq0T7jmYtF-38" vertex="1">
          <mxGeometry y="120" width="320" height="30" as="geometry" />
        </mxCell>
        <mxCell id="Fxgzw8GBScZq0T7jmYtF-49" value="" style="shape=partialRectangle;connectable=0;fillColor=none;top=0;left=0;bottom=0;right=0;editable=1;overflow=hidden;fontFamily=Courier New;fontSize=14;" parent="Fxgzw8GBScZq0T7jmYtF-48" vertex="1">
          <mxGeometry width="40" height="30" as="geometry" />
        </mxCell>
        <mxCell id="Fxgzw8GBScZq0T7jmYtF-50" value="" style="shape=partialRectangle;connectable=0;fillColor=none;top=0;left=0;bottom=0;right=0;align=left;spacingLeft=6;overflow=hidden;fontFamily=Courier New;fontSize=14;" parent="Fxgzw8GBScZq0T7jmYtF-48" vertex="1">
          <mxGeometry x="40" width="280" height="30" as="geometry" />
        </mxCell>
        <mxCell id="Fxgzw8GBScZq0T7jmYtF-60" value="&lt;div&gt;R - required&lt;/div&gt;&lt;div&gt;(wymagane)&lt;/div&gt;" style="text;html=1;strokeColor=none;fillColor=none;align=left;verticalAlign=middle;whiteSpace=wrap;rounded=0;fontFamily=Courier New;fontSize=14;spacingLeft=10;" parent="1" vertex="1">
          <mxGeometry x="440" y="840" width="240" height="39" as="geometry" />
        </mxCell>
        <mxCell id="Fxgzw8GBScZq0T7jmYtF-61" value="&lt;div&gt;FK - foreign key&lt;/div&gt;&lt;div&gt;(klucz obcy)&lt;br&gt;&lt;/div&gt;" style="text;html=1;strokeColor=none;fillColor=none;align=left;verticalAlign=middle;whiteSpace=wrap;rounded=0;fontFamily=Courier New;fontSize=14;spacingLeft=10;" parent="1" vertex="1">
          <mxGeometry x="440" y="879" width="240" height="40" as="geometry" />
        </mxCell>
        <mxCell id="Fxgzw8GBScZq0T7jmYtF-63" value="&lt;div&gt;PK - primary key&lt;/div&gt;&lt;div&gt;(klucz główny)&lt;br&gt;&lt;/div&gt;" style="text;html=1;strokeColor=none;fillColor=none;align=left;verticalAlign=middle;whiteSpace=wrap;rounded=0;fontFamily=Courier New;fontSize=14;spacingLeft=10;" parent="1" vertex="1">
          <mxGeometry x="440" y="919" width="240" height="40" as="geometry" />
        </mxCell>
        <mxCell id="6MuuVzTeAzCvTg_UAYK_-52" value="" style="group;fontFamily=Courier New;fontSize=14;" parent="1" vertex="1" connectable="0">
          <mxGeometry y="280" width="320" height="160" as="geometry" />
        </mxCell>
        <mxCell id="6MuuVzTeAzCvTg_UAYK_-53" value="AnimalSpecimen : BSONDocument" style="shape=table;startSize=30;container=1;collapsible=1;childLayout=tableLayout;fixedRows=1;rowLines=0;fontStyle=1;align=center;resizeLast=1;fontFamily=Courier New;fontSize=14;" parent="6MuuVzTeAzCvTg_UAYK_-52" vertex="1">
          <mxGeometry width="320" height="150" as="geometry" />
        </mxCell>
        <mxCell id="6MuuVzTeAzCvTg_UAYK_-54" value="" style="shape=partialRectangle;collapsible=0;dropTarget=0;pointerEvents=0;fillColor=none;top=0;left=0;bottom=1;right=0;points=[[0,0.5],[1,0.5]];portConstraint=eastwest;fontFamily=Courier New;fontSize=14;" parent="6MuuVzTeAzCvTg_UAYK_-53" vertex="1">
          <mxGeometry y="30" width="320" height="30" as="geometry" />
        </mxCell>
        <mxCell id="6MuuVzTeAzCvTg_UAYK_-55" value="PK" style="shape=partialRectangle;connectable=0;fillColor=none;top=0;left=0;bottom=0;right=0;fontStyle=1;overflow=hidden;fontFamily=Courier New;fontSize=14;" parent="6MuuVzTeAzCvTg_UAYK_-54" vertex="1">
          <mxGeometry width="40" height="30" as="geometry" />
        </mxCell>
        <mxCell id="6MuuVzTeAzCvTg_UAYK_-56" value="id : Integer" style="shape=partialRectangle;connectable=0;fillColor=none;top=0;left=0;bottom=0;right=0;align=left;spacingLeft=6;fontStyle=5;overflow=hidden;fontFamily=Courier New;fontSize=14;" parent="6MuuVzTeAzCvTg_UAYK_-54" vertex="1">
          <mxGeometry x="40" width="280" height="30" as="geometry" />
        </mxCell>
        <mxCell id="6MuuVzTeAzCvTg_UAYK_-57" value="" style="shape=partialRectangle;collapsible=0;dropTarget=0;pointerEvents=0;fillColor=none;top=0;left=0;bottom=0;right=0;points=[[0,0.5],[1,0.5]];portConstraint=eastwest;fontFamily=Courier New;fontSize=14;" parent="6MuuVzTeAzCvTg_UAYK_-53" vertex="1">
          <mxGeometry y="60" width="320" height="30" as="geometry" />
        </mxCell>
        <mxCell id="6MuuVzTeAzCvTg_UAYK_-58" value="R" style="shape=partialRectangle;connectable=0;fillColor=none;top=0;left=0;bottom=0;right=0;editable=1;overflow=hidden;fontFamily=Courier New;fontSize=14;" parent="6MuuVzTeAzCvTg_UAYK_-57" vertex="1">
          <mxGeometry width="40" height="30" as="geometry" />
        </mxCell>
        <mxCell id="6MuuVzTeAzCvTg_UAYK_-59" value="animal_name : String" style="shape=partialRectangle;connectable=0;fillColor=none;top=0;left=0;bottom=0;right=0;align=left;spacingLeft=6;overflow=hidden;fontFamily=Courier New;fontSize=14;" parent="6MuuVzTeAzCvTg_UAYK_-57" vertex="1">
          <mxGeometry x="40" width="280" height="30" as="geometry" />
        </mxCell>
        <mxCell id="6MuuVzTeAzCvTg_UAYK_-60" value="" style="shape=partialRectangle;collapsible=0;dropTarget=0;pointerEvents=0;fillColor=none;top=0;left=0;bottom=0;right=0;points=[[0,0.5],[1,0.5]];portConstraint=eastwest;fontFamily=Courier New;fontSize=14;" parent="6MuuVzTeAzCvTg_UAYK_-53" vertex="1">
          <mxGeometry y="90" width="320" height="30" as="geometry" />
        </mxCell>
        <mxCell id="6MuuVzTeAzCvTg_UAYK_-61" value="R/FK" style="shape=partialRectangle;connectable=0;fillColor=none;top=0;left=0;bottom=0;right=0;editable=1;overflow=hidden;fontFamily=Courier New;fontSize=14;" parent="6MuuVzTeAzCvTg_UAYK_-60" vertex="1">
          <mxGeometry width="40" height="30" as="geometry" />
        </mxCell>
        <mxCell id="6MuuVzTeAzCvTg_UAYK_-62" value="type_id : Integer" style="shape=partialRectangle;connectable=0;fillColor=none;top=0;left=0;bottom=0;right=0;align=left;spacingLeft=6;overflow=hidden;fontFamily=Courier New;fontSize=14;" parent="6MuuVzTeAzCvTg_UAYK_-60" vertex="1">
          <mxGeometry x="40" width="280" height="30" as="geometry" />
        </mxCell>
        <mxCell id="6MuuVzTeAzCvTg_UAYK_-63" value="" style="shape=partialRectangle;collapsible=0;dropTarget=0;pointerEvents=0;fillColor=none;top=0;left=0;bottom=0;right=0;points=[[0,0.5],[1,0.5]];portConstraint=eastwest;fontFamily=Courier New;fontSize=14;" parent="6MuuVzTeAzCvTg_UAYK_-53" vertex="1">
          <mxGeometry y="120" width="320" height="30" as="geometry" />
        </mxCell>
        <mxCell id="6MuuVzTeAzCvTg_UAYK_-64" value="" style="shape=partialRectangle;connectable=0;fillColor=none;top=0;left=0;bottom=0;right=0;editable=1;overflow=hidden;fontFamily=Courier New;fontSize=14;" parent="6MuuVzTeAzCvTg_UAYK_-63" vertex="1">
          <mxGeometry width="40" height="30" as="geometry" />
        </mxCell>
        <mxCell id="6MuuVzTeAzCvTg_UAYK_-65" value="" style="shape=partialRectangle;connectable=0;fillColor=none;top=0;left=0;bottom=0;right=0;align=left;spacingLeft=6;overflow=hidden;fontFamily=Courier New;fontSize=14;" parent="6MuuVzTeAzCvTg_UAYK_-63" vertex="1">
          <mxGeometry x="40" width="280" height="30" as="geometry" />
        </mxCell>
        <mxCell id="6MuuVzTeAzCvTg_UAYK_-72" value="" style="endArrow=classic;html=1;fontFamily=Courier New;entryX=0;entryY=0.5;entryDx=0;entryDy=0;exitX=1;exitY=0.5;exitDx=0;exitDy=0;edgeStyle=elbowEdgeStyle;" parent="1" source="Fxgzw8GBScZq0T7jmYtF-45" target="Fxgzw8GBScZq0T7jmYtF-15" edge="1">
          <mxGeometry width="50" height="50" relative="1" as="geometry">
            <mxPoint x="380" y="480" as="sourcePoint" />
            <mxPoint x="430" y="430" as="targetPoint" />
            <Array as="points">
              <mxPoint x="400" y="160" />
            </Array>
          </mxGeometry>
        </mxCell>
        <mxCell id="6MuuVzTeAzCvTg_UAYK_-73" value="" style="endArrow=classic;html=1;fontFamily=Courier New;entryX=0;entryY=0.5;entryDx=0;entryDy=0;exitX=1;exitY=0.5;exitDx=0;exitDy=0;edgeStyle=elbowEdgeStyle;" parent="1" source="Fxgzw8GBScZq0T7jmYtF-48" target="Fxgzw8GBScZq0T7jmYtF-2" edge="1">
          <mxGeometry width="50" height="50" relative="1" as="geometry">
            <mxPoint x="330" y="195" as="sourcePoint" />
            <mxPoint x="450" y="135" as="targetPoint" />
            <Array as="points">
              <mxPoint x="400" y="250" />
            </Array>
          </mxGeometry>
        </mxCell>
        <mxCell id="6MuuVzTeAzCvTg_UAYK_-75" value="" style="endArrow=classic;html=1;fontFamily=Courier New;edgeStyle=elbowEdgeStyle;entryX=0;entryY=0.5;entryDx=0;entryDy=0;exitX=0;exitY=0.5;exitDx=0;exitDy=0;" parent="1" target="Fxgzw8GBScZq0T7jmYtF-42" edge="1" source="6MuuVzTeAzCvTg_UAYK_-60">
          <mxGeometry width="50" height="50" relative="1" as="geometry">
            <mxPoint y="465" as="sourcePoint" />
            <mxPoint y="160" as="targetPoint" />
            <Array as="points">
              <mxPoint x="-40" y="313" />
            </Array>
          </mxGeometry>
        </mxCell>
        <mxCell id="6MuuVzTeAzCvTg_UAYK_-76" value="" style="group;fontFamily=Courier New;fontSize=14;" parent="1" vertex="1" connectable="0">
          <mxGeometry y="480" width="320" height="200" as="geometry" />
        </mxCell>
        <mxCell id="6MuuVzTeAzCvTg_UAYK_-77" value="FoodAssociation : BSONDocument" style="shape=table;startSize=30;container=1;collapsible=1;childLayout=tableLayout;fixedRows=1;rowLines=0;fontStyle=1;align=center;resizeLast=1;fontFamily=Courier New;fontSize=14;" parent="6MuuVzTeAzCvTg_UAYK_-76" vertex="1">
          <mxGeometry width="320" height="170" as="geometry" />
        </mxCell>
        <mxCell id="6MuuVzTeAzCvTg_UAYK_-78" value="" style="shape=partialRectangle;collapsible=0;dropTarget=0;pointerEvents=0;fillColor=none;top=0;left=0;bottom=1;right=0;points=[[0,0.5],[1,0.5]];portConstraint=eastwest;fontFamily=Courier New;fontSize=14;" parent="6MuuVzTeAzCvTg_UAYK_-77" vertex="1">
          <mxGeometry y="30" width="320" height="30" as="geometry" />
        </mxCell>
        <mxCell id="6MuuVzTeAzCvTg_UAYK_-79" value="PK" style="shape=partialRectangle;connectable=0;fillColor=none;top=0;left=0;bottom=0;right=0;fontStyle=1;overflow=hidden;fontFamily=Courier New;fontSize=14;" parent="6MuuVzTeAzCvTg_UAYK_-78" vertex="1">
          <mxGeometry width="40" height="30" as="geometry" />
        </mxCell>
        <mxCell id="6MuuVzTeAzCvTg_UAYK_-80" value="id : Integer" style="shape=partialRectangle;connectable=0;fillColor=none;top=0;left=0;bottom=0;right=0;align=left;spacingLeft=6;fontStyle=5;overflow=hidden;fontFamily=Courier New;fontSize=14;" parent="6MuuVzTeAzCvTg_UAYK_-78" vertex="1">
          <mxGeometry x="40" width="280" height="30" as="geometry" />
        </mxCell>
        <mxCell id="6MuuVzTeAzCvTg_UAYK_-81" value="" style="shape=partialRectangle;collapsible=0;dropTarget=0;pointerEvents=0;fillColor=none;top=0;left=0;bottom=0;right=0;points=[[0,0.5],[1,0.5]];portConstraint=eastwest;fontFamily=Courier New;fontSize=14;" parent="6MuuVzTeAzCvTg_UAYK_-77" vertex="1">
          <mxGeometry y="60" width="320" height="30" as="geometry" />
        </mxCell>
        <mxCell id="6MuuVzTeAzCvTg_UAYK_-82" value="R" style="shape=partialRectangle;connectable=0;fillColor=none;top=0;left=0;bottom=0;right=0;editable=1;overflow=hidden;fontFamily=Courier New;fontSize=14;" parent="6MuuVzTeAzCvTg_UAYK_-81" vertex="1">
          <mxGeometry width="40" height="30" as="geometry" />
        </mxCell>
        <mxCell id="6MuuVzTeAzCvTg_UAYK_-83" value="animal_type_id : Integer" style="shape=partialRectangle;connectable=0;fillColor=none;top=0;left=0;bottom=0;right=0;align=left;spacingLeft=6;overflow=hidden;fontFamily=Courier New;fontSize=14;" parent="6MuuVzTeAzCvTg_UAYK_-81" vertex="1">
          <mxGeometry x="40" width="280" height="30" as="geometry" />
        </mxCell>
        <mxCell id="6MuuVzTeAzCvTg_UAYK_-84" value="" style="shape=partialRectangle;collapsible=0;dropTarget=0;pointerEvents=0;fillColor=none;top=0;left=0;bottom=0;right=0;points=[[0,0.5],[1,0.5]];portConstraint=eastwest;fontFamily=Courier New;fontSize=14;" parent="6MuuVzTeAzCvTg_UAYK_-77" vertex="1">
          <mxGeometry y="90" width="320" height="30" as="geometry" />
        </mxCell>
        <mxCell id="6MuuVzTeAzCvTg_UAYK_-85" value="" style="shape=partialRectangle;connectable=0;fillColor=none;top=0;left=0;bottom=0;right=0;editable=1;overflow=hidden;fontFamily=Courier New;fontSize=14;" parent="6MuuVzTeAzCvTg_UAYK_-84" vertex="1">
          <mxGeometry width="40" height="30" as="geometry" />
        </mxCell>
        <mxCell id="6MuuVzTeAzCvTg_UAYK_-86" value="food_id : Integer" style="shape=partialRectangle;connectable=0;fillColor=none;top=0;left=0;bottom=0;right=0;align=left;spacingLeft=6;overflow=hidden;fontFamily=Courier New;fontSize=14;" parent="6MuuVzTeAzCvTg_UAYK_-84" vertex="1">
          <mxGeometry x="40" width="280" height="30" as="geometry" />
        </mxCell>
        <mxCell id="6MuuVzTeAzCvTg_UAYK_-91" value="R" style="shape=partialRectangle;connectable=0;fillColor=none;top=0;left=0;bottom=0;right=0;editable=1;overflow=hidden;fontFamily=Courier New;fontSize=14;" parent="6MuuVzTeAzCvTg_UAYK_-76" vertex="1">
          <mxGeometry y="86" width="40" height="37.5" as="geometry" />
        </mxCell>
        <mxCell id="6MuuVzTeAzCvTg_UAYK_-92" value="" style="endArrow=classic;html=1;fontFamily=Courier New;edgeStyle=elbowEdgeStyle;entryX=1;entryY=0.5;entryDx=0;entryDy=0;exitX=1;exitY=0.5;exitDx=0;exitDy=0;" parent="1" source="6MuuVzTeAzCvTg_UAYK_-81" target="Fxgzw8GBScZq0T7jmYtF-39" edge="1">
          <mxGeometry width="50" height="50" relative="1" as="geometry">
            <mxPoint x="320" y="719" as="sourcePoint" />
            <mxPoint x="330" y="130" as="targetPoint" />
            <Array as="points">
              <mxPoint x="360" y="559" />
            </Array>
          </mxGeometry>
        </mxCell>
        <mxCell id="6MuuVzTeAzCvTg_UAYK_-93" value="" style="endArrow=classic;html=1;fontFamily=Courier New;edgeStyle=elbowEdgeStyle;entryX=0;entryY=0.5;entryDx=0;entryDy=0;exitX=1;exitY=0.5;exitDx=0;exitDy=0;" parent="1" source="6MuuVzTeAzCvTg_UAYK_-84" target="Fxgzw8GBScZq0T7jmYtF-23" edge="1">
          <mxGeometry width="50" height="50" relative="1" as="geometry">
            <mxPoint x="330" y="725" as="sourcePoint" />
            <mxPoint x="330" y="135" as="targetPoint" />
            <Array as="points">
              <mxPoint x="400" y="510" />
              <mxPoint x="400" y="440" />
              <mxPoint x="370" y="569" />
            </Array>
          </mxGeometry>
        </mxCell>
        <mxCell id="utDRRcgvDu3ZMU5NzHpO-1" value="" style="group;fontFamily=Courier New;fontSize=14;" parent="1" vertex="1" connectable="0">
          <mxGeometry y="720" width="320" height="200" as="geometry" />
        </mxCell>
        <mxCell id="utDRRcgvDu3ZMU5NzHpO-2" value="ZookeeperAssociation : BSONDocument" style="shape=table;startSize=30;container=1;collapsible=1;childLayout=tableLayout;fixedRows=1;rowLines=0;fontStyle=1;align=center;resizeLast=1;fontFamily=Courier New;fontSize=14;" parent="utDRRcgvDu3ZMU5NzHpO-1" vertex="1">
          <mxGeometry width="320" height="170" as="geometry" />
        </mxCell>
        <mxCell id="utDRRcgvDu3ZMU5NzHpO-3" value="" style="shape=partialRectangle;collapsible=0;dropTarget=0;pointerEvents=0;fillColor=none;top=0;left=0;bottom=1;right=0;points=[[0,0.5],[1,0.5]];portConstraint=eastwest;fontFamily=Courier New;fontSize=14;" parent="utDRRcgvDu3ZMU5NzHpO-2" vertex="1">
          <mxGeometry y="30" width="320" height="30" as="geometry" />
        </mxCell>
        <mxCell id="utDRRcgvDu3ZMU5NzHpO-4" value="PK" style="shape=partialRectangle;connectable=0;fillColor=none;top=0;left=0;bottom=0;right=0;fontStyle=1;overflow=hidden;fontFamily=Courier New;fontSize=14;" parent="utDRRcgvDu3ZMU5NzHpO-3" vertex="1">
          <mxGeometry width="40" height="30" as="geometry" />
        </mxCell>
        <mxCell id="utDRRcgvDu3ZMU5NzHpO-5" value="id : Integer" style="shape=partialRectangle;connectable=0;fillColor=none;top=0;left=0;bottom=0;right=0;align=left;spacingLeft=6;fontStyle=5;overflow=hidden;fontFamily=Courier New;fontSize=14;" parent="utDRRcgvDu3ZMU5NzHpO-3" vertex="1">
          <mxGeometry x="40" width="280" height="30" as="geometry" />
        </mxCell>
        <mxCell id="utDRRcgvDu3ZMU5NzHpO-6" value="" style="shape=partialRectangle;collapsible=0;dropTarget=0;pointerEvents=0;fillColor=none;top=0;left=0;bottom=0;right=0;points=[[0,0.5],[1,0.5]];portConstraint=eastwest;fontFamily=Courier New;fontSize=14;" parent="utDRRcgvDu3ZMU5NzHpO-2" vertex="1">
          <mxGeometry y="60" width="320" height="30" as="geometry" />
        </mxCell>
        <mxCell id="utDRRcgvDu3ZMU5NzHpO-7" value="R" style="shape=partialRectangle;connectable=0;fillColor=none;top=0;left=0;bottom=0;right=0;editable=1;overflow=hidden;fontFamily=Courier New;fontSize=14;" parent="utDRRcgvDu3ZMU5NzHpO-6" vertex="1">
          <mxGeometry width="40" height="30" as="geometry" />
        </mxCell>
        <mxCell id="utDRRcgvDu3ZMU5NzHpO-8" value="animal_type_id : Integer" style="shape=partialRectangle;connectable=0;fillColor=none;top=0;left=0;bottom=0;right=0;align=left;spacingLeft=6;overflow=hidden;fontFamily=Courier New;fontSize=14;" parent="utDRRcgvDu3ZMU5NzHpO-6" vertex="1">
          <mxGeometry x="40" width="280" height="30" as="geometry" />
        </mxCell>
        <mxCell id="utDRRcgvDu3ZMU5NzHpO-9" value="" style="shape=partialRectangle;collapsible=0;dropTarget=0;pointerEvents=0;fillColor=none;top=0;left=0;bottom=0;right=0;points=[[0,0.5],[1,0.5]];portConstraint=eastwest;fontFamily=Courier New;fontSize=14;" parent="utDRRcgvDu3ZMU5NzHpO-2" vertex="1">
          <mxGeometry y="90" width="320" height="30" as="geometry" />
        </mxCell>
        <mxCell id="utDRRcgvDu3ZMU5NzHpO-10" value="" style="shape=partialRectangle;connectable=0;fillColor=none;top=0;left=0;bottom=0;right=0;editable=1;overflow=hidden;fontFamily=Courier New;fontSize=14;" parent="utDRRcgvDu3ZMU5NzHpO-9" vertex="1">
          <mxGeometry width="40" height="30" as="geometry" />
        </mxCell>
        <mxCell id="utDRRcgvDu3ZMU5NzHpO-11" value="zookeeper_id : Integer" style="shape=partialRectangle;connectable=0;fillColor=none;top=0;left=0;bottom=0;right=0;align=left;spacingLeft=6;overflow=hidden;fontFamily=Courier New;fontSize=14;" parent="utDRRcgvDu3ZMU5NzHpO-9" vertex="1">
          <mxGeometry x="40" width="280" height="30" as="geometry" />
        </mxCell>
        <mxCell id="utDRRcgvDu3ZMU5NzHpO-12" value="R" style="shape=partialRectangle;connectable=0;fillColor=none;top=0;left=0;bottom=0;right=0;editable=1;overflow=hidden;fontFamily=Courier New;fontSize=14;" parent="utDRRcgvDu3ZMU5NzHpO-1" vertex="1">
          <mxGeometry y="86" width="40" height="37.5" as="geometry" />
        </mxCell>
        <mxCell id="utDRRcgvDu3ZMU5NzHpO-13" value="" style="endArrow=classic;html=1;fontFamily=Courier New;edgeStyle=elbowEdgeStyle;entryX=0;entryY=0.5;entryDx=0;entryDy=0;exitX=0;exitY=0.5;exitDx=0;exitDy=0;" parent="1" source="utDRRcgvDu3ZMU5NzHpO-6" target="Fxgzw8GBScZq0T7jmYtF-39" edge="1">
          <mxGeometry width="50" height="50" relative="1" as="geometry">
            <mxPoint x="-40" y="440" as="sourcePoint" />
            <mxPoint x="-40" y="130" as="targetPoint" />
            <Array as="points">
              <mxPoint x="-80" y="288" />
            </Array>
          </mxGeometry>
        </mxCell>
        <mxCell id="utDRRcgvDu3ZMU5NzHpO-14" value="" style="endArrow=classic;html=1;fontFamily=Courier New;edgeStyle=elbowEdgeStyle;entryX=1;entryY=0.5;entryDx=0;entryDy=0;exitX=1;exitY=0.5;exitDx=0;exitDy=0;" parent="1" source="utDRRcgvDu3ZMU5NzHpO-9" target="Fxgzw8GBScZq0T7jmYtF-2" edge="1">
          <mxGeometry width="50" height="50" relative="1" as="geometry">
            <mxPoint x="830" y="1110" as="sourcePoint" />
            <mxPoint x="830" y="520" as="targetPoint" />
            <Array as="points">
              <mxPoint x="800" y="640" />
            </Array>
          </mxGeometry>
        </mxCell>
      </root>
    </mxGraphModel>
  </diagram>
</mxfile>
